<?xml version="1.0" encoding="iso-8859-1"?>
<!-- Generator: Adobe Illustrator 25.4.1, SVG Export Plug-In . SVG Version: 6.00 Build 0)  -->
<svg version="1.1" id="Layer_1" xmlns="http://www.w3.org/2000/svg" xmlns:xlink="http://www.w3.org/1999/xlink" x="0px" y="0px"
	 viewBox="0 0 313 142" style="enable-background:new 0 0 313 142;" xml:space="preserve">
<g>
	<defs>
		<rect id="SVGID_1_" x="43.206" y="43.357" width="40.254" height="43.376"/>
	</defs>
	<clipPath id="SVGID_00000016798273326960259850000003128363529710569090_">
		<use xlink:href="#SVGID_1_"  style="overflow:visible;"/>
	</clipPath>
	<path style="clip-path:url(#SVGID_00000016798273326960259850000003128363529710569090_);fill:#002d72;" d="M51.434,72.431h4.937
		c0.838-3.449,2.064-6.192,3.537-7.875C56.418,65.706,53.418,68.555,51.434,72.431"/>
	<path style="clip-path:url(#SVGID_00000016798273326960259850000003128363529710569090_);fill:#002d72;" d="M48.116,71.327
		c0.197,0.374,0.395,0.744,0.598,1.104h1.313c1.266-2.651,2.971-4.893,4.982-6.558C52.316,67.154,49.96,69.025,48.116,71.327"/>
	<path style="clip-path:url(#SVGID_00000016798273326960259850000003128363529710569090_);fill:#002d72;" d="M76.34,75.044
		c-0.161-0.452-0.327-0.898-0.512-1.33H70.59c0.435,2.113,0.725,4.455,0.853,6.947h0.27C73.282,79.095,74.864,77.231,76.34,75.044"
		/>
	<path style="clip-path:url(#SVGID_00000016798273326960259850000003128363529710569090_);fill:#002d72;" d="M57.674,72.431h5.019
		v-8.355C60.779,64.638,58.874,67.675,57.674,72.431"/>
	<path style="clip-path:url(#SVGID_00000016798273326960259850000003128363529710569090_);fill:#002d72;" d="M50.327,75.041
		c1.477,2.189,3.059,4.054,4.628,5.62h0.269c0.128-2.492,0.418-4.834,0.853-6.947h-5.238C50.654,74.145,50.489,74.591,50.327,75.041
		"/>
	<path style="clip-path:url(#SVGID_00000016798273326960259850000003128363529710569090_);fill:#002d72;" d="M62.693,73.713h-5.32
		c-0.434,2.056-0.734,4.393-0.866,6.947h6.186V73.713z"/>
	<path style="clip-path:url(#SVGID_00000016798273326960259850000003128363529710569090_);fill:#002d72;" d="M56.457,81.943
		c-0.001,0.045-0.001,0.09-0.002,0.135c2.36,2.106,4.586,3.546,6.238,4.433v-4.568H56.457z"/>
	<path style="clip-path:url(#SVGID_00000016798273326960259850000003128363529710569090_);fill:#002d72;" d="M63.975,86.515
		c1.651-0.89,3.877-2.327,6.239-4.436c-0.002-0.044-0.002-0.091-0.003-0.136h-6.236V86.515z"/>
	<path style="clip-path:url(#SVGID_00000016798273326960259850000003128363529710569090_);fill:#002d72;" d="M71.661,65.876
		c2.01,1.665,3.714,3.905,4.98,6.556h1.316c0.203-0.36,0.401-0.728,0.596-1.102C76.709,69.025,74.353,67.155,71.661,65.876"/>
	<path style="clip-path:url(#SVGID_00000016798273326960259850000003128363529710569090_);fill:#002d72;" d="M47.489,70.071
		c3.812-4.503,9.496-7.374,15.844-7.374h0.001h0.003c6.347,0.001,12.032,2.872,15.844,7.376c2.522-5.271,4.281-11.914,4.281-20.192
		v-3.492c0-0.489-0.344-0.896-0.802-0.99l-0.014-0.005c-6.227-1.332-12.688-2.037-19.312-2.037c-6.633,0-13.1,0.707-19.334,2.042
		l-0.027,0.008c-0.44,0.109-0.766,0.505-0.766,0.982l0.002,3.492C43.209,58.158,44.966,64.801,47.489,70.071 M59.548,50.458
		c0.62-0.796,1.136-1.716,1.253-2.354c0.413,0.651,0.684,1.956-0.407,3.522c1.401,0.49,3.795-3.633,2.384-5.915
		c2.908,1.665,3.779,5.965,2.313,8.895c1.307,0.418,3.11-3.13,2.511-5.491c2.551,4.336,0.098,8.901-4.919,11.27
		c0.307-0.793,0.865-3.048-2.385-4.171C57.543,55.264,57.477,53.106,59.548,50.458"/>
	<path style="clip-path:url(#SVGID_00000016798273326960259850000003128363529710569090_);fill:#002d72;" d="M63.975,80.66h6.186
		c-0.132-2.554-0.432-4.892-0.867-6.947h-5.319V80.66z"/>
	<path style="clip-path:url(#SVGID_00000016798273326960259850000003128363529710569090_);fill:#002d72;" d="M63.975,64.078v8.354
		h5.019C67.793,67.677,65.888,64.64,63.975,64.078"/>
	<path style="clip-path:url(#SVGID_00000016798273326960259850000003128363529710569090_);fill:#002d72;" d="M66.758,64.555
		c1.473,1.683,2.699,4.426,3.539,7.876h4.936C73.249,68.553,70.248,65.705,66.758,64.555"/>
</g>
<g>
	<defs>
		<rect id="SVGID_00000061433821624490039550000001501859487450237622_" x="89.875" y="47.917" width="180" height="24.581"/>
	</defs>
	<clipPath id="SVGID_00000183933314431003042290000013937178039420650647_">
		<use xlink:href="#SVGID_00000061433821624490039550000001501859487450237622_"  style="overflow:visible;"/>
	</clipPath>
	<path style="clip-path:url(#SVGID_00000183933314431003042290000013937178039420650647_);fill:#002d72;" d="M95.023,52.328
		c0-3.159-0.283-3.5-1.963-3.643l-0.71-0.056c-0.171-0.114-0.114-0.626,0.057-0.711c1.649,0.056,2.616,0.085,3.811,0.085
		c1.139,0,2.106-0.029,3.243-0.085c0.171,0.085,0.229,0.597,0.058,0.711l-0.427,0.056c-1.678,0.229-1.735,0.625-1.735,3.643v10.555
		c0,2.246-0.115,4.209-0.654,5.517c-0.94,2.278-2.959,4.098-5.606,4.098c-0.34,0-1.222-0.029-1.222-0.598
		c0-0.484,0.425-1.31,1.023-1.31c0.342,0,0.684,0.056,1.054,0.172c0.398,0.113,0.796,0.199,1.194,0.199
		c0.598,0,0.94-0.342,1.139-0.74c0.654-1.338,0.738-5.604,0.738-7.141V52.328z"/>
	<path style="clip-path:url(#SVGID_00000183933314431003042290000013937178039420650647_);fill:#002d72;" d="M99.459,59.027
		c0-4.799,3.601-8.472,8.544-8.472c5.544,0,8.328,4.008,8.328,8.232c0,4.848-3.695,8.375-8.328,8.375
		C102.675,67.162,99.459,63.347,99.459,59.027 M113.931,59.531c0-3.959-1.752-8.232-6.336-8.232c-2.496,0-5.735,1.705-5.735,6.961
		c0,3.55,1.727,8.16,6.456,8.16C111.196,66.42,113.931,64.26,113.931,59.531"/>
	<path style="clip-path:url(#SVGID_00000183933314431003042290000013937178039420650647_);fill:#002d72;" d="M121.783,59.027
		c-1.151,0-1.2,0.049-1.2,0.77v3.382c0,2.52,0.12,2.856,1.463,3l0.697,0.073c0.144,0.095,0.096,0.527-0.048,0.599
		c-1.296-0.049-2.112-0.072-3.049-0.072c-1.031,0-1.848,0.049-2.784,0.072c-0.143-0.072-0.191-0.457-0.047-0.599l0.408-0.073
		c1.343-0.24,1.392-0.48,1.392-3v-8.64c0-2.52-0.168-2.927-1.416-3.024l-0.624-0.048c-0.145-0.096-0.096-0.528,0.047-0.6
		c1.176,0.023,1.993,0.072,3.024,0.072c0.937,0,1.753-0.023,2.784-0.072c0.145,0.072,0.194,0.504,0.048,0.6l-0.456,0.048
		c-1.39,0.144-1.439,0.504-1.439,3.024V57.3c0,0.743,0.049,0.768,1.2,0.768h6.864c1.152,0,1.199-0.025,1.199-0.768v-2.761
		c0-2.52-0.047-2.88-1.463-3.024l-0.456-0.048c-0.144-0.096-0.096-0.528,0.048-0.6c1.104,0.049,1.919,0.072,2.903,0.072
		c0.937,0,1.753-0.023,2.833-0.072c0.143,0.072,0.192,0.504,0.048,0.6l-0.504,0.048c-1.392,0.144-1.44,0.504-1.44,3.024v8.64
		c0,2.52,0.048,2.832,1.44,3l0.576,0.073c0.143,0.095,0.096,0.527-0.049,0.599c-1.151-0.049-1.967-0.072-2.904-0.072
		c-0.984,0-1.847,0.023-2.903,0.072c-0.144-0.072-0.192-0.457-0.048-0.599l0.456-0.073c1.463-0.24,1.463-0.48,1.463-3v-3.382
		c0-0.721-0.047-0.77-1.199-0.77H121.783z"/>
	<path style="clip-path:url(#SVGID_00000183933314431003042290000013937178039420650647_);fill:#002d72;" d="M150.224,62.699
		c0,0.721,0,3.576,0.072,4.199c-0.047,0.145-0.191,0.264-0.455,0.264c-0.289-0.406-0.984-1.246-3.072-3.623l-5.568-6.336
		c-0.649-0.744-2.28-2.712-2.784-3.238h-0.048c-0.096,0.287-0.12,0.838-0.12,1.558v5.233c0,1.127,0.024,4.248,0.432,4.966
		c0.145,0.266,0.624,0.409,1.224,0.457l0.743,0.073c0.145,0.191,0.121,0.48-0.047,0.599c-1.08-0.048-1.92-0.072-2.808-0.072
		c-1.008,0-1.657,0.024-2.497,0.072c-0.167-0.119-0.191-0.457-0.047-0.599l0.648-0.073c0.552-0.072,0.936-0.216,1.056-0.48
		c0.335-0.863,0.312-3.791,0.312-4.943V53.82c0-0.673-0.023-1.178-0.528-1.728c-0.336-0.336-0.911-0.505-1.488-0.577l-0.409-0.047
		c-0.143-0.144-0.143-0.503,0.049-0.601c1.008,0.072,2.28,0.072,2.712,0.072c0.384,0,0.792-0.023,1.103-0.072
		c0.481,1.225,3.313,4.393,4.105,5.281l2.327,2.615c1.656,1.848,2.832,3.192,3.961,4.344h0.047c0.097-0.119,0.097-0.504,0.097-1.008
		v-5.136c0-1.128-0.025-4.247-0.48-4.968c-0.144-0.216-0.529-0.36-1.488-0.48l-0.408-0.047c-0.168-0.144-0.145-0.529,0.047-0.601
		c1.105,0.049,1.921,0.072,2.833,0.072c1.032,0,1.655-0.023,2.471-0.072c0.192,0.121,0.192,0.457,0.049,0.601l-0.336,0.047
		c-0.768,0.12-1.249,0.313-1.345,0.504c-0.407,0.864-0.36,3.84-0.36,4.944V62.699z"/>
	<path style="clip-path:url(#SVGID_00000183933314431003042290000013937178039420650647_);fill:#002d72;" d="M156.567,67.162
		c-2.016,0-3.287-0.623-3.744-0.887c-0.287-0.529-0.6-2.232-0.649-3.359c0.122-0.17,0.481-0.217,0.577-0.072
		c0.36,1.222,1.343,3.576,4.128,3.576c2.016,0,3.001-1.321,3.001-2.76c0-1.057-0.216-2.232-1.969-3.361l-2.28-1.489
		c-1.199-0.791-2.591-2.16-2.591-4.127c0-2.28,1.775-4.127,4.895-4.127c0.744,0,1.609,0.144,2.233,0.311
		c0.311,0.098,0.647,0.145,0.838,0.145c0.216,0.575,0.433,1.92,0.433,2.927c-0.096,0.145-0.48,0.216-0.601,0.073
		c-0.311-1.153-0.958-2.713-3.263-2.713c-2.352,0-2.856,1.56-2.856,2.666c0,1.39,1.153,2.398,2.04,2.951l1.92,1.199
		c1.513,0.936,3,2.328,3,4.608C161.679,65.363,159.687,67.162,156.567,67.162"/>
	<path style="clip-path:url(#SVGID_00000183933314431003042290000013937178039420650647_);fill:#002d72;" d="M175.924,57.592
		c-1.365,0-1.422,0.055-1.422,0.908v4.012c0,2.986,0.142,3.385,1.735,3.557l0.826,0.086c0.17,0.113,0.114,0.625-0.058,0.708
		c-1.536-0.056-2.503-0.083-3.612-0.083c-1.224,0-2.192,0.056-3.301,0.083c-0.171-0.083-0.228-0.539-0.057-0.708l0.484-0.086
		c1.592-0.286,1.65-0.571,1.65-3.557V52.27c0-2.987-0.199-3.471-1.678-3.584l-0.74-0.057c-0.171-0.113-0.114-0.626,0.057-0.711
		c1.393,0.028,2.361,0.085,3.585,0.085c1.109,0,2.076-0.028,3.3-0.085c0.17,0.085,0.227,0.598,0.055,0.711l-0.54,0.057
		c-1.649,0.172-1.706,0.597-1.706,3.584v3.272c0,0.882,0.057,0.909,1.422,0.909h8.137c1.365,0,1.422-0.027,1.422-0.909V52.27
		c0-2.987-0.057-3.412-1.736-3.584l-0.541-0.057c-0.17-0.113-0.113-0.626,0.058-0.711c1.307,0.057,2.276,0.085,3.442,0.085
		c1.11,0,2.077-0.028,3.358-0.085c0.17,0.085,0.227,0.598,0.055,0.711l-0.596,0.057c-1.65,0.172-1.707,0.597-1.707,3.584v10.242
		c0,2.986,0.057,3.357,1.707,3.557l0.682,0.086c0.171,0.113,0.115,0.625-0.057,0.708c-1.365-0.056-2.332-0.083-3.442-0.083
		c-1.166,0-2.19,0.027-3.442,0.083c-0.171-0.083-0.228-0.539-0.058-0.708l0.541-0.086c1.736-0.286,1.736-0.571,1.736-3.557V58.5
		c0-0.853-0.057-0.908-1.422-0.908H175.924z"/>
	<path style="clip-path:url(#SVGID_00000183933314431003042290000013937178039420650647_);fill:#002d72;" d="M190.025,59.027
		c0-4.799,3.602-8.472,8.544-8.472c5.545,0,8.328,4.008,8.328,8.232c0,4.848-3.695,8.375-8.328,8.375
		C193.242,67.162,190.025,63.347,190.025,59.027 M204.497,59.531c0-3.959-1.751-8.232-6.336-8.232c-2.495,0-5.735,1.705-5.735,6.961
		c0,3.55,1.728,8.16,6.456,8.16C201.763,66.42,204.497,64.26,204.497,59.531"/>
	<path style="clip-path:url(#SVGID_00000183933314431003042290000013937178039420650647_);fill:#002d72;" d="M211.241,63.18
		c0,2.52,0.048,2.832,1.584,3l0.648,0.072c0.144,0.119,0.097,0.528-0.048,0.6c-1.368-0.049-2.16-0.072-3.12-0.072
		c-1.008,0-1.872,0.023-2.927,0.072c-0.145-0.072-0.193-0.457-0.048-0.6l0.504-0.072c1.391-0.191,1.439-0.48,1.439-3v-8.855
		c0-2.041-0.048-2.449-1.128-2.569l-0.864-0.097c-0.168-0.143-0.144-0.503,0.049-0.599c1.271-0.169,2.76-0.193,4.751-0.193
		c1.992,0,3.48,0.264,4.608,0.961c1.104,0.696,1.92,1.944,1.92,3.599c0,2.208-1.367,3.314-2.4,3.817
		c-1.056,0.504-2.327,0.719-3.312,0.719c-0.168-0.07-0.168-0.431-0.024-0.478c2.592-0.481,3.528-1.946,3.528-4.033
		c0-2.329-1.368-3.839-3.863-3.839c-1.273,0-1.297,0.094-1.297,0.864V63.18z"/>
	<path style="clip-path:url(#SVGID_00000183933314431003042290000013937178039420650647_);fill:#002d72;" d="M221.227,54.539
		c0-2.52-0.049-2.904-1.44-3.023l-0.601-0.048c-0.144-0.097-0.095-0.529,0.048-0.601c1.176,0.049,1.944,0.072,3.023,0.072
		c0.937,0,1.753-0.023,2.785-0.072c0.144,0.072,0.193,0.504,0.047,0.601l-0.455,0.048c-1.392,0.143-1.44,0.503-1.44,3.023v2.762
		c0,0.455,0.048,0.91,0.313,0.91c0.215,0,0.503-0.143,0.671-0.264c0.336-0.287,0.96-0.912,1.225-1.152l2.591-2.567
		c0.456-0.433,1.632-1.657,1.872-1.992c0.121-0.169,0.169-0.289,0.169-0.385c0-0.095-0.096-0.167-0.409-0.239l-0.648-0.144
		c-0.168-0.169-0.144-0.48,0.048-0.601c0.84,0.049,1.8,0.072,2.64,0.072s1.656-0.023,2.375-0.072
		c0.169,0.121,0.193,0.457,0.049,0.601c-0.624,0.048-1.559,0.288-2.231,0.672c-0.672,0.383-2.018,1.511-3.361,2.784l-2.16,2.039
		c-0.336,0.338-0.552,0.553-0.552,0.744c0,0.17,0.144,0.361,0.456,0.744c2.28,2.615,4.128,4.776,6.001,6.744
		c0.576,0.576,1.012,0.889,1.828,0.985l0.463,0.072c0.169,0.119,0.12,0.527-0.049,0.6c-0.624-0.049-1.282-0.073-2.41-0.073
		c-0.984,0-1.826,0.024-2.929,0.073c-0.168-0.049-0.239-0.458-0.096-0.6l0.552-0.098c0.337-0.047,0.576-0.119,0.576-0.238
		c0-0.145-0.168-0.336-0.337-0.553c-0.456-0.576-1.079-1.224-1.991-2.256l-1.92-2.16c-1.368-1.535-1.752-2.015-2.328-2.015
		c-0.36,0-0.408,0.312-0.408,1.152v3.096c0,2.519,0.048,2.855,1.392,3l0.649,0.072c0.142,0.096,0.096,0.527-0.049,0.6
		c-1.176-0.049-1.992-0.073-2.929-0.073c-0.983,0-1.799,0.024-2.783,0.073c-0.143-0.073-0.192-0.432-0.048-0.6l0.481-0.072
		c1.271-0.192,1.32-0.481,1.32-3V54.539z"/>
	<path style="clip-path:url(#SVGID_00000183933314431003042290000013937178039420650647_);fill:#002d72;" d="M237.7,54.588
		c0-2.544-0.048-2.953-1.465-3.072l-0.598-0.048c-0.145-0.097-0.097-0.528,0.046-0.601c1.201,0.049,2.017,0.073,3.025,0.073
		c0.96,0,1.776-0.024,2.975-0.073c0.145,0.073,0.193,0.504,0.049,0.601l-0.6,0.048c-1.416,0.119-1.464,0.528-1.464,3.072v8.543
		c0,2.545,0.048,2.881,1.464,3.049l0.6,0.072c0.144,0.096,0.096,0.527-0.049,0.6c-1.199-0.049-2.015-0.073-2.975-0.073
		c-1.008,0-1.733,0.024-2.932,0.073c-0.144-0.073-0.192-0.457-0.048-0.6l0.507-0.072c1.417-0.168,1.465-0.504,1.465-3.049V54.588z"
		/>
	<path style="clip-path:url(#SVGID_00000183933314431003042290000013937178039420650647_);fill:#002d72;" d="M258.46,62.699
		c0,0.721,0,3.576,0.073,4.199c-0.048,0.145-0.192,0.264-0.456,0.264c-0.288-0.406-0.984-1.246-3.072-3.623l-5.568-6.336
		c-0.648-0.744-2.281-2.712-2.784-3.238h-0.047c-0.097,0.287-0.122,0.838-0.122,1.558v5.233c0,1.127,0.025,4.248,0.433,4.966
		c0.145,0.266,0.624,0.409,1.224,0.457l0.744,0.073c0.143,0.191,0.119,0.48-0.048,0.599c-1.08-0.048-1.92-0.072-2.808-0.072
		c-1.007,0-1.656,0.024-2.495,0.072c-0.169-0.119-0.193-0.457-0.049-0.599l0.649-0.073c0.551-0.072,0.935-0.216,1.055-0.48
		c0.336-0.863,0.312-3.791,0.312-4.943V53.82c0-0.673-0.024-1.178-0.528-1.728c-0.336-0.336-0.912-0.505-1.488-0.577l-0.408-0.047
		c-0.144-0.144-0.144-0.503,0.049-0.601c1.008,0.072,2.279,0.072,2.711,0.072c0.384,0,0.792-0.023,1.104-0.072
		c0.481,1.225,3.312,4.393,4.103,5.281l2.329,2.615c1.656,1.848,2.831,3.192,3.96,4.344h0.048c0.096-0.119,0.096-0.504,0.096-1.008
		v-5.136c0-1.128-0.024-4.247-0.48-4.968c-0.144-0.216-0.527-0.36-1.487-0.48l-0.408-0.047c-0.169-0.144-0.145-0.529,0.046-0.601
		c1.105,0.049,1.92,0.072,2.833,0.072c1.033,0,1.656-0.023,2.471-0.072c0.193,0.121,0.193,0.457,0.049,0.601l-0.336,0.047
		c-0.768,0.12-1.248,0.313-1.345,0.504c-0.408,0.864-0.36,3.84-0.36,4.944V62.699z"/>
	<path style="clip-path:url(#SVGID_00000183933314431003042290000013937178039420650647_);fill:#002d72;" d="M264.764,67.162
		c-2.017,0-3.288-0.623-3.745-0.887c-0.287-0.529-0.6-2.232-0.649-3.359c0.122-0.17,0.482-0.217,0.577-0.072
		c0.36,1.222,1.344,3.576,4.129,3.576c2.015,0,3-1.321,3-2.76c0-1.057-0.217-2.232-1.969-3.361l-2.279-1.489
		c-1.201-0.791-2.593-2.16-2.593-4.127c0-2.28,1.776-4.127,4.897-4.127c0.743,0,1.607,0.144,2.232,0.311
		c0.312,0.098,0.647,0.145,0.838,0.145c0.217,0.575,0.433,1.92,0.433,2.927c-0.097,0.145-0.479,0.216-0.6,0.073
		c-0.312-1.153-0.959-2.713-3.263-2.713c-2.353,0-2.857,1.56-2.857,2.666c0,1.39,1.153,2.398,2.039,2.951l1.921,1.199
		c1.512,0.936,3,2.328,3,4.608C269.875,65.363,267.883,67.162,264.764,67.162"/>
</g>
<g>
	<defs>
		<rect id="SVGID_00000125593484290361220820000009389812489707446457_" width="313" height="142"/>
	</defs>
	<clipPath id="SVGID_00000017474317813299038050000005465383017777787052_">
		<use xlink:href="#SVGID_00000125593484290361220820000009389812489707446457_"  style="overflow:visible;"/>
	</clipPath>
	<path style="clip-path:url(#SVGID_00000017474317813299038050000005465383017777787052_);fill:#002d72;" d="M111.186,79.121
		c0-0.918-0.049-1.154-0.608-1.203l-0.396-0.038c-0.1-0.074-0.087-0.26,0.012-0.31c0.669-0.062,1.513-0.099,2.667-0.099
		c0.781,0,1.526,0.062,2.084,0.348c0.533,0.26,0.944,0.756,0.944,1.55c0,0.893-0.522,1.352-1.266,1.7c0,0.124,0.1,0.161,0.235,0.185
		c0.67,0.124,1.663,0.745,1.663,2.073c0,1.438-1.067,2.406-3.3,2.406c-0.36,0-0.967-0.037-1.489-0.037
		c-0.546,0-0.967,0.024-1.426,0.037c-0.075-0.037-0.099-0.235-0.025-0.31l0.223-0.038c0.658-0.111,0.682-0.248,0.682-1.55V79.121z
		 M112.203,80.771c0,0.348,0.014,0.372,0.646,0.348c1.265-0.05,1.948-0.422,1.948-1.588c0-1.216-0.907-1.675-1.849-1.675
		c-0.272,0-0.459,0.024-0.571,0.074c-0.123,0.037-0.174,0.099-0.174,0.323V80.771z M112.203,83.649c0,0.446,0.025,1.079,0.262,1.353
		c0.235,0.285,0.607,0.346,0.979,0.346c1.105,0,1.948-0.496,1.948-1.736c0-0.981-0.497-2.121-2.468-2.121
		c-0.67,0-0.721,0.074-0.721,0.322V83.649z"/>
	<path style="clip-path:url(#SVGID_00000017474317813299038050000005465383017777787052_);fill:#002d72;" d="M119.309,79.369
		c0-1.302-0.025-1.501-0.807-1.562l-0.31-0.026c-0.074-0.049-0.049-0.272,0.025-0.309c0.696,0.024,1.117,0.037,1.613,0.037
		c0.484,0,0.906-0.013,1.526-0.037c0.074,0.037,0.099,0.26,0.025,0.309l-0.299,0.026c-0.731,0.061-0.755,0.26-0.755,1.562v4.317
		c0,0.782,0.037,1.105,0.259,1.34c0.137,0.137,0.373,0.285,1.353,0.285c1.055,0,1.315-0.049,1.514-0.161
		c0.248-0.148,0.57-0.595,0.818-1.228c0.075-0.062,0.311-0.012,0.311,0.075c0,0.136-0.348,1.401-0.521,1.736
		c-0.633-0.024-1.813-0.037-3.09-0.037h-1.141c-0.521,0-0.917,0.013-1.613,0.037c-0.074-0.037-0.099-0.235-0.025-0.309l0.373-0.038
		c0.719-0.075,0.744-0.248,0.744-1.55V79.369z"/>
	<path style="clip-path:url(#SVGID_00000017474317813299038050000005465383017777787052_);fill:#002d72;" d="M125.62,81.689
		c0-2.481,1.861-4.379,4.416-4.379c2.866,0,4.304,2.072,4.304,4.255c0,2.506-1.91,4.329-4.304,4.329
		C127.282,85.894,125.62,83.922,125.62,81.689 M133.1,81.95c0-2.047-0.905-4.256-3.275-4.256c-1.289,0-2.965,0.881-2.965,3.598
		c0,1.836,0.894,4.218,3.338,4.218C131.686,85.51,133.1,84.393,133.1,81.95"/>
	<path style="clip-path:url(#SVGID_00000017474317813299038050000005465383017777787052_);fill:#002d72;" d="M136.098,81.689
		c0-2.481,1.86-4.379,4.416-4.379c2.865,0,4.304,2.072,4.304,4.255c0,2.506-1.91,4.329-4.304,4.329
		C137.76,85.894,136.098,83.922,136.098,81.689 M143.578,81.95c0-2.047-0.906-4.256-3.275-4.256c-1.291,0-2.965,0.881-2.965,3.598
		c0,1.836,0.892,4.218,3.337,4.218C142.163,85.51,143.578,84.393,143.578,81.95"/>
	<path style="clip-path:url(#SVGID_00000017474317813299038050000005465383017777787052_);fill:#002d72;" d="M150.756,82.384
		c0.285,0.583,0.559,1.154,0.855,1.7h0.026c0.335-0.583,0.644-1.228,0.955-1.861l1.166-2.369c0.559-1.129,0.918-1.812,0.943-2.382
		c0.422,0.037,0.682,0.037,0.93,0.037c0.311,0,0.72-0.013,1.105-0.037c0.074,0.05,0.074,0.261,0.012,0.309l-0.261,0.026
		c-0.782,0.074-0.88,0.309-0.868,1.179c0.025,1.314,0.037,3.609,0.137,5.395c0.037,0.621,0.024,0.956,0.607,1.005l0.397,0.038
		c0.074,0.074,0.062,0.26-0.024,0.31c-0.509-0.025-1.017-0.037-1.464-0.037c-0.434,0-0.993,0.012-1.501,0.037
		c-0.087-0.062-0.1-0.236-0.025-0.31l0.36-0.038c0.607-0.062,0.607-0.26,0.607-1.054l-0.037-5.174h-0.024
		c-0.087,0.137-0.559,1.129-0.807,1.614l-1.105,2.171c-0.557,1.091-1.116,2.257-1.339,2.828c-0.025,0.037-0.075,0.049-0.124,0.049
		c-0.025,0-0.087-0.012-0.112-0.049c-0.21-0.658-0.805-1.873-1.091-2.481l-1.117-2.394c-0.26-0.571-0.521-1.216-0.794-1.786h-0.024
		c-0.05,0.768-0.088,1.488-0.125,2.208c-0.037,0.756-0.086,1.86-0.086,2.915c0,0.918,0.074,1.116,0.558,1.153l0.471,0.038
		c0.087,0.074,0.074,0.273-0.012,0.31c-0.421-0.025-0.906-0.037-1.377-0.037c-0.397,0-0.843,0.012-1.265,0.037
		c-0.074-0.062-0.1-0.248-0.026-0.31l0.274-0.038c0.52-0.074,0.694-0.148,0.768-1.017c0.076-0.819,0.137-1.501,0.211-2.729
		c0.062-1.029,0.113-2.084,0.137-2.767c0.025-0.781-0.075-0.968-0.831-1.066l-0.199-0.026c-0.062-0.074-0.049-0.259,0.051-0.309
		c0.371,0.024,0.67,0.037,0.979,0.037c0.285,0,0.62,0,1.03-0.037c-0.05,0.483,0.26,1.253,0.645,2.047L150.756,82.384z"/>
	<path style="clip-path:url(#SVGID_00000017474317813299038050000005465383017777787052_);fill:#002d72;" d="M159.433,79.121
		c0-0.918-0.048-1.154-0.607-1.203l-0.397-0.038c-0.099-0.074-0.087-0.26,0.012-0.31c0.67-0.062,1.514-0.099,2.668-0.099
		c0.781,0,1.526,0.062,2.084,0.348c0.533,0.26,0.942,0.756,0.942,1.55c0,0.893-0.52,1.352-1.264,1.7
		c0,0.124,0.098,0.161,0.234,0.185c0.67,0.124,1.663,0.745,1.663,2.073c0,1.438-1.067,2.406-3.299,2.406
		c-0.36,0-0.968-0.037-1.489-0.037c-0.547,0-0.969,0.024-1.428,0.037c-0.074-0.037-0.098-0.235-0.024-0.31l0.224-0.038
		c0.657-0.111,0.681-0.248,0.681-1.55V79.121z M160.451,80.771c0,0.348,0.013,0.372,0.644,0.348c1.266-0.05,1.949-0.422,1.949-1.588
		c0-1.216-0.906-1.675-1.849-1.675c-0.272,0-0.459,0.024-0.57,0.074c-0.124,0.037-0.174,0.099-0.174,0.323V80.771z M160.451,83.649
		c0,0.446,0.025,1.079,0.261,1.353c0.235,0.285,0.608,0.346,0.979,0.346c1.105,0,1.948-0.496,1.948-1.736
		c0-0.981-0.497-2.121-2.468-2.121c-0.67,0-0.72,0.074-0.72,0.322V83.649z"/>
	<path style="clip-path:url(#SVGID_00000017474317813299038050000005465383017777787052_);fill:#002d72;" d="M167.543,79.369
		c0-1.29-0.024-1.475-0.756-1.562l-0.199-0.026c-0.074-0.049-0.049-0.272,0.025-0.309c0.533,0.024,0.955,0.037,1.463,0.037h2.333
		c0.794,0,1.526,0,1.675-0.037c0.074,0.211,0.148,1.103,0.198,1.649c-0.05,0.075-0.248,0.1-0.309,0.025
		c-0.187-0.583-0.299-1.017-0.944-1.178c-0.26-0.063-0.657-0.074-1.203-0.074h-0.893c-0.373,0-0.373,0.024-0.373,0.496v2.48
		c0,0.348,0.038,0.348,0.411,0.348h0.718c0.522,0,0.907-0.025,1.055-0.074c0.149-0.05,0.236-0.125,0.298-0.435l0.099-0.508
		c0.062-0.075,0.273-0.075,0.322,0.012c0,0.298-0.049,0.782-0.049,1.253c0,0.447,0.049,0.918,0.049,1.191
		c-0.049,0.087-0.26,0.087-0.322,0.012l-0.112-0.484c-0.049-0.223-0.136-0.409-0.385-0.471c-0.173-0.05-0.47-0.062-0.955-0.062
		h-0.718c-0.373,0-0.411,0.012-0.411,0.335v1.749c0,0.658,0.038,1.079,0.237,1.29c0.148,0.149,0.408,0.285,1.5,0.285
		c0.955,0,1.315-0.049,1.588-0.185c0.223-0.124,0.558-0.559,0.881-1.204c0.087-0.062,0.261-0.025,0.31,0.087
		c-0.087,0.434-0.396,1.389-0.558,1.724c-1.117-0.024-2.221-0.037-3.325-0.037h-1.117c-0.533,0-0.955,0.013-1.686,0.037
		c-0.075-0.037-0.099-0.235-0.025-0.309l0.409-0.038c0.707-0.062,0.769-0.248,0.769-1.55V79.369z"/>
	<path style="clip-path:url(#SVGID_00000017474317813299038050000005465383017777787052_);fill:#002d72;" d="M175.405,79.382
		c0-1.179-0.037-1.39-0.545-1.452l-0.397-0.049c-0.088-0.062-0.088-0.261,0.012-0.311c0.695-0.062,1.551-0.099,2.766-0.099
		c0.769,0,1.501,0.062,2.072,0.372c0.595,0.311,1.03,0.869,1.03,1.737c0,1.179-0.931,1.824-1.551,2.072
		c-0.061,0.074,0,0.198,0.062,0.298c0.992,1.6,1.65,2.593,2.494,3.3c0.211,0.185,0.521,0.322,0.855,0.346
		c0.063,0.026,0.074,0.124,0.013,0.174c-0.112,0.037-0.31,0.063-0.546,0.063c-1.055,0-1.687-0.311-2.568-1.564
		c-0.323-0.459-0.83-1.314-1.215-1.873c-0.187-0.273-0.385-0.397-0.881-0.397c-0.559,0-0.584,0.012-0.584,0.273v1.564
		c0,1.301,0.025,1.451,0.745,1.549l0.261,0.039c0.074,0.061,0.049,0.272-0.026,0.309c-0.558-0.024-0.98-0.037-1.476-0.037
		c-0.521,0-0.967,0.013-1.551,0.037c-0.074-0.037-0.098-0.223-0.024-0.309l0.31-0.039c0.72-0.086,0.744-0.248,0.744-1.549V79.382z
		 M176.422,81.156c0,0.223,0,0.359,0.038,0.409c0.037,0.037,0.224,0.062,0.857,0.062c0.445,0,0.917-0.049,1.277-0.323
		c0.334-0.26,0.62-0.694,0.62-1.538c0-0.98-0.608-1.91-1.985-1.91c-0.769,0-0.807,0.049-0.807,0.397V81.156z"/>
	<path style="clip-path:url(#SVGID_00000017474317813299038050000005465383017777787052_);fill:#002d72;" d="M190.027,84.431
		c0,0.496,0.075,0.794,0.299,0.881c0.037,0.037,0.037,0.112-0.013,0.149c-0.149,0-0.372,0.049-0.608,0.112
		c-0.657,0.173-1.551,0.322-2.221,0.322c-1.476,0-2.828-0.409-3.783-1.377c-0.744-0.744-1.141-1.725-1.141-2.816
		c0-1.054,0.347-2.122,1.115-2.94c0.832-0.868,2.061-1.451,3.934-1.451c0.707,0,1.364,0.136,1.575,0.185
		c0.236,0.05,0.62,0.137,0.769,0.113c0,0.409,0.074,1.053,0.186,1.799c-0.037,0.098-0.26,0.111-0.335,0.037
		c-0.347-1.34-1.277-1.762-2.543-1.762c-2.406,0-3.461,1.712-3.461,3.572c0,2.382,1.229,4.255,3.721,4.255
		c0.77,0,1.229-0.161,1.365-0.372c0.063-0.087,0.124-0.31,0.124-0.707v-0.496c0-1.042-0.037-1.116-0.805-1.203l-0.547-0.063
		c-0.1-0.049-0.086-0.272,0-0.309c0.359,0.024,1.043,0.037,1.774,0.037c0.484,0,0.906-0.013,1.316-0.037
		c0.086,0.05,0.098,0.235,0.011,0.309l-0.198,0.026c-0.52,0.061-0.534,0.409-0.534,1.042V84.431z"/>
	<path style="clip-path:url(#SVGID_00000017474317813299038050000005465383017777787052_);fill:#002d72;" d="M198.793,85.895
		c-1.043,0-1.7-0.322-1.936-0.459c-0.148-0.272-0.31-1.153-0.335-1.736c0.062-0.087,0.248-0.113,0.298-0.037
		c0.186,0.632,0.695,1.847,2.133,1.847c1.043,0,1.551-0.681,1.551-1.426c0-0.545-0.111-1.154-1.017-1.737l-1.178-0.768
		c-0.621-0.411-1.34-1.118-1.34-2.134c0-1.179,0.918-2.134,2.531-2.134c0.385,0,0.83,0.074,1.153,0.161
		c0.161,0.05,0.335,0.074,0.435,0.074c0.111,0.298,0.222,0.993,0.222,1.514c-0.048,0.074-0.248,0.111-0.31,0.037
		c-0.16-0.596-0.496-1.402-1.687-1.402c-1.215,0-1.475,0.806-1.475,1.378c0,0.718,0.595,1.24,1.054,1.525l0.993,0.62
		c0.781,0.485,1.55,1.203,1.55,2.382C201.435,84.965,200.405,85.895,198.793,85.895"/>
	<path style="clip-path:url(#SVGID_00000017474317813299038050000005465383017777787052_);fill:#002d72;" d="M204.496,78.364
		c0.906-0.707,2.06-1.054,3.35-1.054c0.67,0,1.613,0.136,2.195,0.298c0.149,0.037,0.236,0.062,0.348,0.049
		c0.011,0.286,0.074,1.067,0.173,1.824c-0.062,0.087-0.248,0.099-0.335,0.025c-0.186-0.844-0.745-1.812-2.543-1.812
		c-1.898,0-3.51,1.204-3.51,3.772c0,2.605,1.65,4.043,3.683,4.043c1.602,0,2.309-1.041,2.594-1.773
		c0.086-0.063,0.272-0.037,0.322,0.05c-0.087,0.644-0.41,1.464-0.595,1.699c-0.149,0.024-0.298,0.074-0.434,0.124
		c-0.273,0.1-1.166,0.285-1.961,0.285c-1.116,0-2.183-0.222-3.088-0.831c-0.993-0.682-1.761-1.811-1.761-3.411
		C202.934,80.275,203.553,79.096,204.496,78.364"/>
	<path style="clip-path:url(#SVGID_00000017474317813299038050000005465383017777787052_);fill:#002d72;" d="M214.851,81.689
		c-0.596,0-0.62,0.024-0.62,0.396v1.75c0,1.302,0.061,1.476,0.756,1.55l0.36,0.038c0.074,0.049,0.05,0.273-0.024,0.31
		c-0.67-0.024-1.092-0.037-1.576-0.037c-0.534,0-0.956,0.024-1.44,0.037c-0.074-0.037-0.099-0.235-0.023-0.31l0.21-0.038
		c0.694-0.124,0.719-0.248,0.719-1.55v-4.466c0-1.302-0.087-1.513-0.732-1.563l-0.322-0.025c-0.075-0.049-0.049-0.273,0.025-0.31
		c0.607,0.013,1.029,0.037,1.563,0.037c0.484,0,0.906-0.012,1.439-0.037c0.074,0.037,0.1,0.261,0.024,0.31l-0.235,0.025
		c-0.72,0.074-0.744,0.261-0.744,1.563v1.426c0,0.385,0.024,0.398,0.62,0.398h3.548c0.596,0,0.62-0.013,0.62-0.398v-1.426
		c0-1.302-0.024-1.489-0.757-1.563l-0.235-0.025c-0.075-0.049-0.05-0.273,0.024-0.31c0.571,0.025,0.992,0.037,1.502,0.037
		c0.483,0,0.904-0.012,1.463-0.037c0.074,0.037,0.1,0.261,0.025,0.31l-0.26,0.025c-0.72,0.074-0.745,0.261-0.745,1.563v4.466
		c0,1.302,0.025,1.463,0.745,1.55l0.298,0.038c0.074,0.049,0.048,0.273-0.026,0.31c-0.596-0.024-1.017-0.037-1.5-0.037
		c-0.51,0-0.956,0.013-1.502,0.037c-0.074-0.037-0.099-0.235-0.024-0.31l0.235-0.038c0.757-0.124,0.757-0.248,0.757-1.55v-1.75
		c0-0.372-0.024-0.396-0.62-0.396H214.851z"/>
	<path style="clip-path:url(#SVGID_00000017474317813299038050000005465383017777787052_);fill:#002d72;" d="M222.489,81.689
		c0-2.481,1.86-4.379,4.416-4.379c2.865,0,4.304,2.072,4.304,4.255c0,2.506-1.91,4.329-4.304,4.329
		C224.151,85.894,222.489,83.922,222.489,81.689 M229.969,81.95c0-2.047-0.906-4.256-3.275-4.256c-1.291,0-2.965,0.881-2.965,3.598
		c0,1.836,0.892,4.218,3.337,4.218C228.554,85.51,229.969,84.393,229.969,81.95"/>
	<path style="clip-path:url(#SVGID_00000017474317813299038050000005465383017777787052_);fill:#002d72;" d="M232.965,81.689
		c0-2.481,1.861-4.379,4.416-4.379c2.866,0,4.304,2.072,4.304,4.255c0,2.506-1.91,4.329-4.304,4.329
		C234.627,85.894,232.965,83.922,232.965,81.689 M240.445,81.95c0-2.047-0.905-4.256-3.275-4.256c-1.289,0-2.965,0.881-2.965,3.598
		c0,1.836,0.894,4.218,3.338,4.218C239.031,85.51,240.445,84.393,240.445,81.95"/>
	<path style="clip-path:url(#SVGID_00000017474317813299038050000005465383017777787052_);fill:#002d72;" d="M244.387,79.369
		c0-1.302-0.025-1.501-0.807-1.562l-0.31-0.026c-0.074-0.049-0.049-0.272,0.025-0.309c0.695,0.024,1.116,0.037,1.613,0.037
		c0.483,0,0.905-0.013,1.526-0.037c0.074,0.037,0.099,0.26,0.024,0.309l-0.298,0.026c-0.732,0.061-0.756,0.26-0.756,1.562v4.317
		c0,0.782,0.038,1.105,0.26,1.34c0.137,0.137,0.372,0.285,1.352,0.285c1.055,0,1.315-0.049,1.514-0.161
		c0.248-0.148,0.57-0.595,0.819-1.228c0.074-0.062,0.309-0.012,0.309,0.075c0,0.136-0.347,1.401-0.52,1.736
		c-0.633-0.024-1.812-0.037-3.089-0.037h-1.141c-0.521,0-0.918,0.013-1.613,0.037c-0.074-0.037-0.099-0.235-0.025-0.309l0.373-0.038
		c0.719-0.075,0.744-0.248,0.744-1.55V79.369z"/>
	<path style="clip-path:url(#SVGID_00000017474317813299038050000005465383017777787052_);fill:#002d72;" d="M126.322,95.688
		c-0.037,0.681-0.397,1.873-1.315,2.815c-0.769,0.794-1.439,0.857-1.774,0.857c-0.794,0-1.315-0.583-1.241-1.651
		c0.051-0.768,0.51-1.971,1.352-2.778c0.646-0.62,1.204-0.807,1.712-0.807C125.937,94.124,126.372,94.781,126.322,95.688
		 M124.064,95.092c-0.72,0.968-1.203,2.443-1.24,3.102c-0.026,0.433,0.148,0.794,0.508,0.794c0.273,0,0.584-0.113,0.98-0.646
		c0.546-0.731,1.129-2.369,1.154-3.026c0.012-0.385-0.062-0.82-0.496-0.82C124.721,94.496,124.423,94.609,124.064,95.092"/>
	<path style="clip-path:url(#SVGID_00000017474317813299038050000005465383017777787052_);fill:#002d72;" d="M129.917,94.757
		c-0.074,0.211-0.173,0.607-0.322,1.153c-0.372,1.39-0.707,2.581-1.105,3.946c-0.322,1.116-0.731,1.749-0.979,1.997
		c-0.187,0.174-0.757,0.67-1.49,0.67c-0.669,0-0.905-0.422-0.905-0.608c0-0.248,0.15-0.459,0.286-0.558
		c0.099-0.075,0.21-0.038,0.285,0.049c0.297,0.31,0.67,0.509,0.943,0.509c0.248,0,0.509-0.087,0.794-1.042
		c0.57-1.96,1.005-4.094,1.599-6.116h-1.029c-0.124-0.111-0.074-0.348,0.087-0.459h1.067c0.323-1.116,0.658-2.084,1.389-2.952
		c0.621-0.733,1.266-1.03,1.985-1.03c0.459,0,0.955,0.323,0.955,0.819c0,0.322-0.334,0.707-0.533,0.707
		c-0.112,0-0.161-0.112-0.174-0.199c-0.037-0.682-0.384-0.906-0.694-0.906c-0.273,0-0.608,0.249-0.893,0.67
		c-0.572,0.831-0.82,1.712-1.154,2.891h1.551c0.086,0.137,0.062,0.322-0.125,0.459H129.917z"/>
	<path style="clip-path:url(#SVGID_00000017474317813299038050000005465383017777787052_);fill:#002d72;" d="M138.461,97.325
		c0,1.302,0.025,1.464,0.818,1.55l0.335,0.038c0.076,0.061,0.05,0.272-0.024,0.31c-0.707-0.025-1.117-0.038-1.613-0.038
		c-0.522,0-0.967,0.013-1.514,0.038c-0.074-0.038-0.099-0.236-0.024-0.31l0.26-0.038c0.719-0.099,0.744-0.248,0.744-1.55v-4.578
		c0-1.055-0.025-1.266-0.582-1.327l-0.447-0.05c-0.088-0.074-0.074-0.261,0.025-0.311c0.657-0.086,1.426-0.098,2.456-0.098
		c1.029,0,1.798,0.137,2.382,0.496c0.571,0.359,0.993,1.005,0.993,1.86c0,1.142-0.707,1.712-1.242,1.973
		c-0.546,0.261-1.203,0.372-1.712,0.372c-0.086-0.037-0.086-0.223-0.011-0.248c1.34-0.248,1.823-1.005,1.823-2.084
		c0-1.203-0.707-1.984-1.997-1.984c-0.658,0-0.67,0.048-0.67,0.446V97.325z"/>
	<path style="clip-path:url(#SVGID_00000017474317813299038050000005465383017777787052_);fill:#002d72;" d="M150.789,94.111
		c0-0.768-0.025-2.195-0.236-2.567c-0.087-0.15-0.311-0.236-0.62-0.261l-0.31-0.024c-0.075-0.087-0.051-0.249,0.023-0.298
		c0.473,0.024,0.932,0.037,1.415,0.037c0.521,0,0.857-0.013,1.302-0.037c0.1,0.061,0.088,0.222,0.026,0.298l-0.298,0.024
		c-0.31,0.025-0.546,0.137-0.62,0.298c-0.174,0.409-0.174,1.836-0.174,2.53v1.402c0,1.08-0.174,2.221-0.868,2.965
		c-0.534,0.583-1.452,0.906-2.37,0.906c-0.856,0-1.711-0.162-2.32-0.682c-0.657-0.546-0.968-1.452-0.968-2.928v-2.928
		c0-1.29-0.024-1.501-0.744-1.563l-0.31-0.024c-0.074-0.05-0.049-0.261,0.025-0.298c0.62,0.024,1.042,0.037,1.538,0.037
		c0.509,0,0.918-0.013,1.527-0.037c0.074,0.037,0.099,0.248,0.024,0.298l-0.298,0.024c-0.719,0.062-0.744,0.273-0.744,1.563v2.68
		c0,1.997,0.62,3.312,2.519,3.312c1.797,0,2.481-1.414,2.481-3.3V94.111z"/>
	<path style="clip-path:url(#SVGID_00000017474317813299038050000005465383017777787052_);fill:#002d72;" d="M154.741,92.611
		c0-0.918-0.049-1.154-0.608-1.204l-0.396-0.037c-0.1-0.074-0.087-0.26,0.012-0.31c0.669-0.062,1.513-0.099,2.667-0.099
		c0.781,0,1.526,0.062,2.084,0.348c0.533,0.26,0.944,0.756,0.944,1.55c0,0.893-0.522,1.352-1.266,1.7c0,0.124,0.1,0.161,0.235,0.185
		c0.67,0.124,1.663,0.745,1.663,2.073c0,1.438-1.067,2.406-3.3,2.406c-0.36,0-0.967-0.037-1.489-0.037
		c-0.546,0-0.968,0.024-1.426,0.037c-0.075-0.037-0.099-0.235-0.025-0.31l0.223-0.038c0.658-0.111,0.682-0.248,0.682-1.55V92.611z
		 M155.758,94.261c0,0.348,0.014,0.372,0.645,0.348c1.266-0.05,1.949-0.422,1.949-1.588c0-1.216-0.907-1.675-1.849-1.675
		c-0.272,0-0.459,0.024-0.571,0.074c-0.123,0.037-0.174,0.099-0.174,0.323V94.261z M155.758,97.139c0,0.446,0.025,1.079,0.262,1.352
		c0.235,0.286,0.607,0.347,0.979,0.347c1.105,0,1.948-0.496,1.948-1.736c0-0.981-0.497-2.121-2.468-2.121
		c-0.67,0-0.721,0.074-0.721,0.322V97.139z"/>
	<path style="clip-path:url(#SVGID_00000017474317813299038050000005465383017777787052_);fill:#002d72;" d="M162.863,92.858
		c0-1.302-0.025-1.501-0.807-1.562l-0.31-0.026c-0.074-0.049-0.049-0.272,0.025-0.31c0.696,0.025,1.117,0.038,1.613,0.038
		c0.484,0,0.906-0.013,1.526-0.038c0.074,0.038,0.099,0.261,0.025,0.31l-0.299,0.026c-0.731,0.061-0.755,0.26-0.755,1.562v4.317
		c0,0.782,0.037,1.105,0.259,1.34c0.137,0.137,0.373,0.285,1.353,0.285c1.055,0,1.315-0.049,1.513-0.161
		c0.249-0.148,0.571-0.595,0.819-1.228c0.075-0.062,0.31-0.012,0.31,0.075c0,0.136-0.347,1.401-0.52,1.736
		c-0.633-0.024-1.813-0.037-3.09-0.037h-1.141c-0.521,0-0.917,0.013-1.613,0.037c-0.074-0.037-0.099-0.235-0.025-0.309l0.373-0.038
		c0.719-0.075,0.744-0.248,0.744-1.55V92.858z"/>
	<path style="clip-path:url(#SVGID_00000017474317813299038050000005465383017777787052_);fill:#002d72;" d="M170.34,92.884
		c0-1.315-0.024-1.526-0.756-1.588l-0.31-0.025c-0.075-0.049-0.05-0.273,0.025-0.31c0.619,0.025,1.041,0.037,1.562,0.037
		c0.497,0,0.918-0.012,1.539-0.037c0.075,0.037,0.099,0.261,0.024,0.31l-0.31,0.025c-0.731,0.062-0.756,0.273-0.756,1.588V97.3
		c0,1.315,0.025,1.489,0.756,1.575l0.31,0.038c0.075,0.049,0.051,0.273-0.024,0.31c-0.621-0.025-1.042-0.037-1.539-0.037
		c-0.521,0-0.943,0.012-1.562,0.037c-0.075-0.037-0.1-0.235-0.025-0.31l0.31-0.038c0.732-0.086,0.756-0.26,0.756-1.575V92.884z"/>
	<path style="clip-path:url(#SVGID_00000017474317813299038050000005465383017777787052_);fill:#002d72;" d="M175.672,91.854
		c0.906-0.707,2.06-1.054,3.35-1.054c0.67,0,1.613,0.136,2.195,0.298c0.149,0.037,0.236,0.062,0.348,0.049
		c0.011,0.286,0.074,1.067,0.173,1.824c-0.062,0.087-0.248,0.099-0.335,0.025c-0.186-0.844-0.745-1.812-2.543-1.812
		c-1.898,0-3.51,1.204-3.51,3.772c0,2.605,1.65,4.043,3.683,4.043c1.602,0,2.309-1.041,2.594-1.773
		c0.086-0.062,0.273-0.037,0.322,0.05c-0.087,0.644-0.41,1.464-0.595,1.699c-0.149,0.024-0.298,0.074-0.434,0.124
		c-0.273,0.1-1.166,0.285-1.961,0.285c-1.116,0-2.183-0.222-3.088-0.831c-0.993-0.682-1.761-1.811-1.761-3.411
		C174.11,93.765,174.729,92.586,175.672,91.854"/>
	<path style="clip-path:url(#SVGID_00000017474317813299038050000005465383017777787052_);fill:#002d72;" d="M189.734,95.179
		c-0.596,0-0.621,0.024-0.621,0.396v1.75c0,1.302,0.062,1.476,0.758,1.55l0.359,0.038c0.074,0.049,0.05,0.273-0.025,0.31
		c-0.67-0.024-1.092-0.037-1.575-0.037c-0.534,0-0.956,0.024-1.439,0.037c-0.074-0.037-0.1-0.235-0.025-0.31l0.211-0.038
		c0.695-0.124,0.719-0.248,0.719-1.55v-4.466c0-1.302-0.087-1.513-0.731-1.563l-0.323-0.025c-0.075-0.049-0.05-0.273,0.024-0.31
		c0.608,0.013,1.03,0.037,1.564,0.037c0.483,0,0.905-0.012,1.439-0.037c0.074,0.037,0.099,0.261,0.024,0.31l-0.235,0.025
		c-0.72,0.074-0.745,0.261-0.745,1.563v1.427c0,0.384,0.025,0.397,0.621,0.397h3.548c0.595,0,0.62-0.013,0.62-0.397v-1.427
		c0-1.302-0.025-1.489-0.757-1.563l-0.235-0.025c-0.074-0.049-0.05-0.273,0.024-0.31c0.571,0.025,0.993,0.037,1.501,0.037
		c0.485,0,0.906-0.012,1.465-0.037c0.074,0.037,0.099,0.261,0.023,0.31l-0.259,0.025c-0.72,0.074-0.744,0.261-0.744,1.563v4.466
		c0,1.302,0.024,1.464,0.744,1.55l0.298,0.038c0.074,0.049,0.049,0.273-0.025,0.31c-0.596-0.024-1.017-0.037-1.502-0.037
		c-0.508,0-0.955,0.013-1.501,0.037c-0.074-0.037-0.098-0.235-0.024-0.31l0.235-0.038c0.757-0.124,0.757-0.248,0.757-1.55v-1.75
		c0-0.372-0.025-0.396-0.62-0.396H189.734z"/>
	<path style="clip-path:url(#SVGID_00000017474317813299038050000005465383017777787052_);fill:#002d72;" d="M198.686,92.858
		c0-1.29-0.024-1.476-0.756-1.562l-0.199-0.026c-0.074-0.049-0.049-0.272,0.025-0.31c0.534,0.025,0.955,0.038,1.463,0.038h2.333
		c0.794,0,1.527,0,1.675-0.038c0.074,0.212,0.149,1.104,0.198,1.65c-0.049,0.075-0.248,0.1-0.309,0.025
		c-0.187-0.583-0.299-1.017-0.944-1.178c-0.259-0.063-0.657-0.075-1.203-0.075h-0.893c-0.372,0-0.372,0.025-0.372,0.496v2.481
		c0,0.348,0.037,0.348,0.41,0.348h0.719c0.521,0,0.906-0.025,1.054-0.075c0.149-0.049,0.237-0.124,0.298-0.434l0.099-0.508
		c0.062-0.075,0.273-0.075,0.322,0.012c0,0.298-0.049,0.782-0.049,1.253c0,0.447,0.049,0.918,0.049,1.191
		c-0.049,0.087-0.26,0.087-0.322,0.012l-0.112-0.484c-0.048-0.223-0.136-0.409-0.384-0.471c-0.174-0.05-0.471-0.062-0.955-0.062
		h-0.719c-0.373,0-0.41,0.012-0.41,0.335v1.749c0,0.657,0.037,1.079,0.236,1.29c0.148,0.149,0.408,0.285,1.5,0.285
		c0.955,0,1.315-0.049,1.588-0.185c0.224-0.124,0.558-0.559,0.881-1.204c0.088-0.062,0.261-0.025,0.31,0.087
		c-0.087,0.434-0.396,1.389-0.558,1.724c-1.117-0.024-2.221-0.037-3.325-0.037h-1.117c-0.533,0-0.955,0.013-1.686,0.037
		c-0.074-0.037-0.099-0.235-0.025-0.309l0.41-0.038c0.707-0.062,0.768-0.248,0.768-1.55V92.858z"/>
	<path style="clip-path:url(#SVGID_00000017474317813299038050000005465383017777787052_);fill:#002d72;" d="M210.009,96.308
		c-0.087-0.274-0.136-0.311-0.509-0.311h-1.873c-0.31,0-0.385,0.037-0.47,0.298l-0.435,1.303c-0.187,0.558-0.273,0.893-0.273,1.029
		c0,0.149,0.062,0.224,0.36,0.248l0.409,0.038c0.087,0.061,0.087,0.26-0.024,0.31c-0.323-0.025-0.707-0.025-1.291-0.038
		c-0.409,0-0.856,0.025-1.191,0.038c-0.075-0.05-0.098-0.249-0.024-0.31l0.408-0.038c0.299-0.024,0.571-0.161,0.745-0.608
		c0.224-0.57,0.571-1.377,1.092-2.766l1.265-3.35c0.173-0.446,0.248-0.681,0.21-0.881c0.299-0.087,0.51-0.309,0.646-0.47
		c0.074,0,0.161,0.024,0.186,0.111c0.161,0.546,0.36,1.116,0.545,1.662l1.701,4.987c0.359,1.067,0.52,1.253,1.053,1.315l0.336,0.038
		c0.086,0.061,0.062,0.26,0,0.31c-0.508-0.025-0.943-0.038-1.502-0.038c-0.594,0-1.066,0.025-1.425,0.038
		c-0.1-0.05-0.112-0.249-0.026-0.31l0.36-0.038c0.261-0.024,0.434-0.099,0.434-0.223c0-0.136-0.061-0.36-0.161-0.658L210.009,96.308
		z M207.553,95.203c-0.1,0.285-0.087,0.298,0.26,0.298h1.526c0.36,0,0.385-0.05,0.273-0.385l-0.67-2.021
		c-0.099-0.298-0.21-0.633-0.285-0.783h-0.025c-0.037,0.063-0.161,0.361-0.298,0.733L207.553,95.203z"/>
	<path style="clip-path:url(#SVGID_00000017474317813299038050000005465383017777787052_);fill:#002d72;" d="M214.893,92.858
		c0-1.302-0.024-1.501-0.806-1.562l-0.31-0.026c-0.075-0.049-0.05-0.272,0.024-0.31c0.696,0.025,1.117,0.038,1.613,0.038
		c0.485,0,0.907-0.013,1.526-0.038c0.074,0.038,0.099,0.261,0.025,0.31l-0.298,0.026c-0.731,0.061-0.756,0.26-0.756,1.562v4.317
		c0,0.782,0.037,1.105,0.26,1.34c0.136,0.137,0.372,0.285,1.353,0.285c1.055,0,1.314-0.049,1.514-0.161
		c0.248-0.148,0.57-0.595,0.818-1.228c0.074-0.062,0.31-0.012,0.31,0.075c0,0.136-0.347,1.401-0.521,1.736
		c-0.633-0.024-1.812-0.037-3.09-0.037h-1.141c-0.521,0-0.917,0.013-1.613,0.037c-0.074-0.037-0.099-0.235-0.024-0.309l0.372-0.038
		c0.72-0.075,0.744-0.248,0.744-1.55V92.858z"/>
	<path style="clip-path:url(#SVGID_00000017474317813299038050000005465383017777787052_);fill:#002d72;" d="M224.107,97.325
		c0,1.302,0.024,1.488,0.744,1.55l0.397,0.038c0.074,0.049,0.05,0.272-0.025,0.31c-0.707-0.025-1.129-0.038-1.625-0.038
		s-0.93,0.013-1.724,0.038c-0.075-0.038-0.099-0.249,0-0.31l0.446-0.038c0.707-0.062,0.769-0.248,0.769-1.55v-5.546
		c0-0.385,0-0.396-0.372-0.396h-0.682c-0.533,0-1.215,0.024-1.526,0.309c-0.297,0.274-0.422,0.546-0.558,0.857
		c-0.1,0.074-0.274,0.012-0.323-0.087c0.199-0.559,0.385-1.353,0.471-1.849c0.038-0.024,0.199-0.037,0.237,0
		c0.074,0.398,0.484,0.385,1.054,0.385h5.024c0.67,0,0.782-0.025,0.968-0.348c0.062-0.024,0.198-0.011,0.223,0.037
		c-0.137,0.509-0.223,1.514-0.185,1.886c-0.051,0.1-0.262,0.1-0.324,0.025c-0.037-0.31-0.124-0.769-0.309-0.906
		c-0.285-0.211-0.758-0.309-1.44-0.309h-0.881c-0.372,0-0.359,0.011-0.359,0.422V97.325z"/>
	<path style="clip-path:url(#SVGID_00000017474317813299038050000005465383017777787052_);fill:#002d72;" d="M231.572,95.179
		c-0.596,0-0.621,0.024-0.621,0.396v1.75c0,1.302,0.062,1.476,0.757,1.55l0.36,0.038c0.074,0.049,0.049,0.273-0.025,0.31
		c-0.67-0.024-1.092-0.037-1.576-0.037c-0.534,0-0.956,0.024-1.439,0.037c-0.074-0.037-0.099-0.235-0.024-0.31l0.211-0.038
		c0.694-0.124,0.718-0.248,0.718-1.55v-4.466c0-1.302-0.086-1.513-0.731-1.563l-0.323-0.025c-0.075-0.049-0.049-0.273,0.025-0.31
		c0.607,0.013,1.029,0.037,1.563,0.037c0.484,0,0.906-0.012,1.439-0.037c0.074,0.037,0.1,0.261,0.025,0.31l-0.236,0.025
		c-0.719,0.074-0.744,0.261-0.744,1.563v1.427c0,0.384,0.025,0.397,0.621,0.397h3.547c0.596,0,0.621-0.013,0.621-0.397v-1.427
		c0-1.302-0.025-1.489-0.758-1.563l-0.234-0.025c-0.075-0.049-0.051-0.273,0.023-0.31c0.571,0.025,0.993,0.037,1.502,0.037
		c0.483,0,0.905-0.012,1.464-0.037c0.074,0.037,0.099,0.261,0.024,0.31l-0.259,0.025c-0.721,0.074-0.746,0.261-0.746,1.563v4.466
		c0,1.302,0.025,1.464,0.746,1.55l0.297,0.038c0.074,0.049,0.049,0.273-0.025,0.31c-0.596-0.024-1.018-0.037-1.501-0.037
		c-0.509,0-0.955,0.013-1.502,0.037c-0.074-0.037-0.098-0.235-0.023-0.31l0.234-0.038c0.758-0.124,0.758-0.248,0.758-1.55v-1.75
		c0-0.372-0.025-0.396-0.621-0.396H231.572z"/>
</g>
</svg>
